{"glyphs":{":":{"x_min":0,"x_max":195,"ha":195,"o":"m 67 485 b 30 485 -4 453 -4 417 b -4 388 18 366 49 366 b 86 366 120 398 120 435 b 120 463 98 485 67 485 z m 67 105 b 30 105 -4 73 -4 37 b -4 8 18 -14 49 -14 b 86 -14 120 18 120 55 b 120 83 98 105 67 105 z"},"$":{"x_min":0,"x_max":537,"ha":537,"o":"m 388 750 l 295 750 l 282 664 b 234 657 194 640 158 613 b 119 583 96 546 89 503 b 87 491 86 479 86 468 b 86 432 96 401 116 377 b 139 349 175 327 226 311 l 189 79 b 144 88 95 109 42 144 l -21 72 b 35 24 101 -3 175 -9 l 165 -69 l 258 -69 l 268 -8 b 325 -2 354 1 415 45 b 459 77 486 121 494 176 b 496 188 497 199 497 210 b 497 251 483 285 457 311 b 431 334 389 356 329 375 l 360 575 b 402 567 449 545 499 511 l 563 584 b 508 627 445 654 375 664 z m 241 408 b 222 418 207 430 196 445 b 188 455 184 468 184 483 b 184 488 185 495 186 501 b 189 524 199 541 215 553 b 230 565 248 573 268 577 z m 314 281 l 349 266 b 381 249 399 225 399 193 b 399 188 398 182 397 176 b 388 118 350 85 282 77 z"},"?":{"x_min":0,"x_max":458,"ha":458,"o":"m 185 543 b 158 543 154 555 154 563 b 154 576 161 581 172 589 b 185 598 199 604 214 609 b 234 616 250 619 269 619 b 304 619 338 608 359 587 b 370 577 379 563 383 548 b 387 538 388 528 388 518 b 388 477 375 453 359 434 b 344 415 318 398 307 391 b 284 376 267 367 245 356 b 217 342 201 334 181 320 b 156 303 142 289 129 272 b 114 252 105 233 100 202 b 98 188 97 174 97 161 b 97 150 98 139 99 130 l 187 147 b 186 183 187 193 188 200 b 191 217 198 229 213 243 b 225 254 237 263 262 277 l 325 309 b 413 354 462 421 474 496 b 476 507 477 518 477 529 b 477 578 458 619 431 647 b 397 681 344 703 285 703 b 238 703 188 689 151 669 b 137 661 113 645 96 626 b 77 606 69 583 66 564 b 65 558 65 553 65 548 b 65 502 98 474 145 474 b 160 474 177 477 193 483 z m 159 93 b 122 93 86 60 86 22 b 86 -8 108 -31 139 -31 b 176 -31 212 3 212 41 b 212 70 189 93 159 93 z"},"<":{"x_min":0,"x_max":384,"ha":384,"o":"m 363 399 l 324 475 l -11 265 l 256 56 l 322 133 l 153 267 z"},"'":{"x_min":0,"x_max":188,"ha":188,"o":"m 165 475 l 212 702 l 104 702 l 79 475 z"},"=":{"x_min":0,"x_max":454,"ha":454,"o":"m 442 330 l 455 417 l 68 417 l 55 330 z m 416 170 l 430 257 l 43 257 l 29 170 z"},"a":{"x_min":0,"x_max":644,"ha":644,"o":"m 516 96 b 512 93 508 88 504 83 b 499 77 494 74 488 74 b 483 74 480 76 477 79 b 475 81 474 84 474 87 l 474 91 l 539 500 l 503 500 l 490 499 b 463 499 441 501 420 505 b 392 507 360 508 344 508 b 269 508 200 487 142 433 b 93 388 56 323 44 245 b 41 228 40 211 40 194 b 40 147 51 103 75 67 b 107 20 160 -9 235 -9 b 294 -9 347 9 389 45 b 395 28 407 14 422 5 b 438 -4 456 -9 476 -9 b 514 -9 550 10 582 48 z m 400 192 b 394 156 376 126 346 104 b 320 85 286 72 248 72 b 206 72 171 88 151 128 b 140 150 133 181 133 214 b 133 226 134 238 136 250 b 144 302 171 348 198 375 b 214 391 231 403 253 413 b 273 422 293 427 316 427 b 330 427 365 425 436 420 z"},"L":{"x_min":0,"x_max":527,"ha":527,"o":"m 124 88 l 219 684 l 123 684 l 14 0 l 437 0 l 451 88 z"},"3":{"x_min":0,"x_max":583,"ha":583,"o":"m 189 529 b 245 561 287 583 349 583 b 378 583 399 578 417 567 b 439 554 446 536 446 518 b 446 442 365 406 321 406 l 195 406 l 181 319 l 308 319 b 348 319 380 308 404 286 b 424 267 435 241 435 211 b 435 205 434 198 433 191 b 426 150 403 116 362 98 b 348 92 326 85 302 82 b 281 79 253 78 242 78 b 177 78 115 113 69 141 l 16 65 b 86 22 152 -9 237 -9 b 263 -9 301 -6 335 0 b 368 6 405 20 426 32 b 484 64 521 123 532 191 b 534 203 535 214 535 225 b 535 303 490 346 446 373 b 505 407 536 449 545 508 b 547 518 547 528 547 538 b 547 632 467 670 356 670 b 276 670 244 650 155 604 z"},";":{"x_min":0,"x_max":179,"ha":179,"o":"m 67 485 b 30 485 -4 453 -4 417 b -4 388 18 366 49 366 b 86 366 120 398 120 435 b 120 463 98 485 67 485 z m 7 15 b 5 6 5 1 1 -10 b -6 -27 -21 -45 -45 -66 l 2 -122 b 35 -101 60 -79 77 -56 b 92 -33 103 -3 108 32 l 112 52 b 114 67 111 79 102 88 b 94 97 83 102 69 102 b 55 102 42 98 32 89 b 20 80 13 68 11 54 z"},"J":{"x_min":0,"x_max":471,"ha":471,"o":"m 112 588 b 148 606 179 615 203 615 b 213 615 227 611 246 603 b 281 589 311 582 336 582 b 351 582 365 584 376 587 l 314 196 b 309 161 296 133 276 111 b 255 88 228 77 191 77 b 154 77 127 86 113 103 b 98 120 90 142 90 170 b 90 179 91 188 92 197 l 30 197 b 21 197 15 197 12 198 b 9 181 8 166 8 151 b 8 108 19 74 38 48 b 63 12 107 -6 170 -6 b 233 -6 285 13 327 50 b 368 86 393 134 402 194 l 481 690 l 401 690 b 386 674 372 666 356 666 b 341 666 327 668 317 671 b 306 674 291 680 272 688 b 253 695 244 699 216 699 b 163 699 121 685 89 658 z"},"V":{"x_min":0,"x_max":706,"ha":706,"o":"m 155 574 b 157 579 160 585 164 592 b 168 598 174 601 181 601 b 188 601 192 598 192 592 l 308 0 l 392 0 l 735 685 l 638 685 l 374 152 l 284 618 b 283 623 281 629 279 634 b 263 671 233 690 193 690 b 165 690 142 681 121 664 b 99 647 82 625 70 598 z"},"\"":{"x_min":0,"x_max":345,"ha":345,"o":"m 171 475 l 218 702 l 110 702 l 85 475 z m 331 475 l 378 702 l 270 702 l 245 475 z"},"7":{"x_min":0,"x_max":492,"ha":492,"o":"m 542 626 l 546 653 l 93 648 l 79 562 b 307 562 349 563 409 565 l 80 0 l 182 0 z"},"S":{"x_min":0,"x_max":581,"ha":581,"o":"m 11 162 b 19 135 28 113 44 87 b 61 60 75 45 95 28 b 121 7 142 -3 164 -11 b 189 -20 218 -24 246 -24 b 277 -24 310 -19 339 -9 b 368 1 400 19 423 36 b 446 53 471 79 488 103 b 510 135 518 165 522 192 b 524 206 525 218 525 228 b 525 246 522 261 518 275 b 510 297 498 316 483 333 b 467 349 448 363 426 376 l 358 412 l 311 436 b 296 443 282 453 269 464 b 253 477 248 483 241 494 b 235 501 233 510 233 521 b 233 525 233 530 234 535 b 236 549 241 561 250 572 b 258 582 268 592 280 599 b 292 606 305 611 319 615 b 332 618 347 620 356 620 b 362 620 372 619 380 618 b 389 617 400 614 407 611 b 415 608 421 604 428 598 b 432 593 434 587 434 581 l 434 577 b 433 571 430 567 427 566 b 423 564 419 563 415 563 b 412 563 408 563 405 564 l 395 567 l 374 482 b 377 481 379 482 383 480 b 386 479 388 478 395 478 b 406 478 422 480 437 484 b 452 488 465 494 477 503 b 489 511 499 521 508 534 b 516 546 521 560 524 577 b 525 583 525 590 525 595 b 525 610 523 623 517 635 b 509 650 497 664 481 675 b 466 686 448 694 428 699 b 408 704 389 706 370 706 b 345 706 321 702 296 694 b 265 684 244 672 227 660 b 206 645 188 628 174 607 b 158 586 148 562 144 535 b 142 525 142 516 142 508 b 142 489 145 473 152 459 b 160 441 177 418 195 400 b 202 393 220 378 234 370 b 240 366 254 358 275 348 b 312 329 307 333 316 328 l 360 306 b 370 301 382 295 393 287 b 404 279 412 270 417 263 b 422 256 428 245 431 233 b 433 226 433 219 433 212 b 433 205 433 199 432 192 b 429 172 422 154 410 138 b 400 123 386 108 370 97 b 354 85 336 76 317 70 b 299 64 281 61 261 61 b 241 61 221 64 203 71 b 187 77 169 87 156 99 b 145 109 131 125 122 142 b 112 158 105 175 100 194 z"},"}":{"x_min":0,"x_max":317,"ha":317,"o":"m 74 677 l 105 668 b 116 665 127 662 140 657 b 154 652 167 646 178 638 b 187 632 192 622 192 610 b 192 606 192 603 191 599 b 189 582 178 542 160 480 b 149 439 140 404 136 374 b 135 367 134 360 134 354 b 134 326 145 304 166 288 b 134 268 114 240 109 203 b 103 166 100 129 101 92 b 102 54 99 18 94 -17 b 90 -38 82 -52 68 -60 b 54 -68 39 -74 24 -79 b 9 -84 -3 -87 -15 -90 l -49 -99 l -37 -176 b -13 -169 12 -163 37 -157 b 61 -151 85 -143 105 -132 b 126 -121 144 -107 160 -89 b 175 -71 185 -47 190 -16 b 195 14 198 59 200 118 b 200 136 200 151 201 164 b 201 177 202 190 205 203 b 208 227 239 241 295 247 l 308 331 b 282 334 266 336 257 339 b 249 342 242 346 237 352 b 233 356 231 362 231 369 b 231 372 231 375 232 378 b 234 389 244 426 263 488 b 274 525 281 560 286 593 b 288 603 288 612 288 621 b 288 661 272 690 239 710 b 222 721 201 729 178 735 b 155 741 132 747 110 754 z"},"Z":{"x_min":0,"x_max":624,"ha":624,"o":"m 614 681 l 160 681 l 147 597 l 446 597 l -6 22 l 62 -20 l 111 41 b 125 38 159 29 190 19 b 212 12 232 5 264 -2 b 296 -9 323 -13 351 -13 b 413 -13 471 7 545 68 l 491 126 b 470 108 446 93 434 86 b 414 75 392 70 365 70 b 331 70 302 78 247 94 b 217 103 201 107 168 114 z"},"x":{"x_min":0,"x_max":591,"ha":591,"o":"m 327 251 l 530 500 l 423 500 l 279 322 l 189 500 l 80 500 l 211 249 l 2 0 l 109 0 l 256 177 l 330 29 b 338 14 350 2 365 -6 b 381 -14 398 -18 418 -18 b 452 -18 476 -6 498 16 b 521 39 530 50 541 94 l 449 99 b 446 77 439 67 428 67 b 423 67 417 69 415 74 z"},")":{"x_min":0,"x_max":365,"ha":365,"o":"m 82 686 b 143 648 174 629 222 520 b 243 469 254 416 254 361 b 254 339 252 317 249 294 b 237 218 204 143 149 70 b 95 -4 31 -59 -42 -96 l -10 -166 b 83 -120 161 -57 224 25 b 287 107 327 197 342 294 b 346 323 349 351 349 379 b 349 445 336 506 310 564 b 273 644 216 708 136 756 z"},"&":{"x_min":0,"x_max":631,"ha":631,"o":"m 505 -10 l 574 53 l 494 136 b 535 190 561 249 571 315 l 580 371 l 492 371 l 485 324 b 477 276 461 233 436 194 l 321 314 b 314 321 301 334 288 346 b 243 389 223 422 223 460 b 223 498 237 520 256 533 b 270 543 288 549 318 549 b 349 549 363 542 376 528 b 386 517 396 501 404 477 l 479 531 b 471 560 452 586 429 604 b 405 623 377 634 335 634 b 291 634 243 622 201 594 b 160 566 132 528 123 472 b 121 462 121 452 121 442 b 121 408 130 380 146 355 b 112 336 84 313 59 278 b 38 247 22 214 16 176 b 14 165 14 155 14 145 b 14 99 30 62 58 37 b 93 5 145 -9 204 -9 b 282 -9 364 15 428 68 z m 372 124 b 326 88 264 73 213 73 b 173 73 150 82 132 99 b 123 108 116 117 111 132 b 108 142 107 151 107 160 b 107 166 107 171 108 177 b 112 202 122 226 138 246 b 152 263 176 284 199 294 b 229 269 259 241 288 211 z"},"_":{"x_min":0,"x_max":574,"ha":574,"o":"m 454 -150 l 468 -60 l -7 -60 l -21 -150 z"},"v":{"x_min":0,"x_max":524,"ha":524,"o":"m 62 452 b 90 436 107 419 111 400 l 188 0 l 270 0 l 524 500 l 432 500 l 253 148 l 204 404 b 199 432 189 455 176 473 b 162 490 145 507 122 522 z"},"O":{"x_min":0,"x_max":824,"ha":824,"o":"m 53 330 b 50 311 48 293 48 274 b 48 245 52 217 61 191 b 75 143 98 108 124 78 b 155 43 191 19 229 2 b 267 -15 308 -26 363 -26 b 412 -26 462 -17 511 2 b 558 20 597 44 637 77 b 674 108 710 147 736 190 b 772 247 780 290 787 330 l 790 349 b 793 368 794 386 794 404 b 794 434 790 462 783 489 b 771 532 749 570 720 602 b 689 636 654 661 616 678 b 574 697 528 706 479 706 b 430 706 382 697 334 679 b 286 661 246 637 205 602 b 167 570 135 535 108 490 b 80 443 63 396 56 349 z m 696 330 b 685 261 646 190 584 137 b 530 91 454 59 376 59 b 339 59 306 66 274 80 b 242 94 216 113 195 138 b 159 181 140 230 140 285 b 140 300 142 315 144 330 l 147 349 b 158 423 196 487 259 541 b 293 569 325 587 356 599 b 392 613 428 620 465 620 b 543 620 606 590 647 541 b 670 514 686 482 693 455 b 699 434 702 413 702 390 b 702 377 701 363 699 349 z"},"(":{"x_min":0,"x_max":365,"ha":365,"o":"m 375 756 b 281 709 202 645 140 564 b 77 482 37 392 22 294 b 18 265 15 237 15 210 b 15 144 28 83 54 25 b 91 -57 149 -121 229 -166 l 282 -96 b 221 -59 175 -4 143 70 b 122 121 111 174 111 228 b 111 250 113 272 116 294 b 128 372 161 447 215 520 b 268 592 332 647 406 686 z"},"C":{"x_min":0,"x_max":762,"ha":762,"o":"m 628 187 b 556 102 457 64 393 64 b 359 64 261 53 193 142 b 173 168 156 202 149 229 b 143 247 140 268 140 291 b 140 306 141 320 144 336 b 149 373 162 411 184 448 b 203 480 231 513 261 539 b 290 564 323 585 362 601 b 398 616 433 624 472 624 b 506 624 542 618 568 609 b 608 595 623 575 620 553 b 619 548 617 540 613 536 b 611 533 605 530 599 530 b 592 530 593 534 587 537 b 584 539 579 543 577 543 l 511 477 b 538 453 563 445 587 445 b 619 445 648 459 667 475 b 693 498 710 531 710 568 b 710 614 684 649 641 674 b 601 697 547 710 490 710 b 443 710 390 701 340 681 b 293 662 247 634 207 600 b 166 564 131 520 108 481 b 80 435 63 386 54 335 b 51 316 50 297 50 280 b 50 248 54 220 61 194 b 74 149 95 112 122 81 b 148 52 182 25 227 6 b 268 -11 314 -21 367 -21 b 425 -21 484 -9 544 21 b 599 49 650 88 694 138 z"},"W":{"x_min":0,"x_max":1146,"ha":1146,"o":"m 155 579 l 164 596 b 167 601 171 606 180 606 b 188 606 192 602 193 595 l 303 0 l 388 0 l 651 526 l 747 0 l 832 0 l 1175 685 l 1078 685 l 815 153 l 719 685 l 634 685 l 371 153 l 286 623 b 282 644 272 662 254 675 b 239 686 218 694 191 694 b 163 694 142 686 120 668 b 95 648 83 629 71 603 z"},"A":{"x_min":0,"x_max":801,"ha":801,"o":"m 721 0 l 518 686 l 476 686 l 113 94 b 110 89 105 86 98 86 b 91 86 88 89 86 96 b 84 103 83 109 82 114 l -9 97 b -9 69 0 45 16 26 b 32 7 51 -3 81 -3 b 102 -3 126 2 145 13 b 165 23 180 38 193 58 l 287 216 l 558 216 l 618 0 z m 338 303 l 471 523 l 533 303 z"},"f":{"x_min":0,"x_max":418,"ha":418,"o":"m -26 -259 l 64 -259 l 135 185 l 283 185 l 296 269 l 148 269 l 167 392 l 197 392 b 263 392 319 409 361 440 b 407 474 437 526 446 585 b 448 597 449 608 449 618 b 449 653 439 681 418 702 b 405 715 389 725 370 732 b 351 739 324 742 302 742 b 269 742 240 735 214 720 b 158 687 112 611 93 493 z m 181 476 l 184 496 b 191 542 201 576 212 599 b 220 616 232 631 244 641 b 257 652 275 658 296 658 b 317 658 333 652 344 640 b 352 631 356 620 356 604 b 356 598 355 592 354 584 b 343 513 294 476 211 476 z"},"Q":{"x_min":0,"x_max":802,"ha":802,"o":"m 106 -153 l 169 -205 l 224 -142 b 277 -161 288 -165 328 -176 b 367 -187 387 -192 424 -192 b 489 -192 521 -177 584 -139 l 554 -67 b 504 -98 473 -109 441 -109 b 421 -109 390 -105 367 -98 l 287 -71 l 336 -15 b 345 -16 354 -16 363 -16 b 407 -16 450 -8 487 4 b 579 34 664 102 715 191 b 741 237 758 289 766 339 b 769 360 771 381 771 402 b 771 475 750 542 707 594 b 657 655 573 694 467 694 b 367 694 271 660 195 594 b 119 527 70 435 55 340 b 52 320 50 299 50 280 b 50 223 63 170 85 127 b 117 65 171 21 243 0 z m 464 608 b 518 608 589 596 634 532 b 659 497 674 448 674 389 b 674 372 673 354 670 335 b 658 255 619 189 571 145 b 516 94 445 69 371 69 b 289 69 227 99 191 144 b 161 182 147 230 147 284 b 147 302 148 320 151 338 b 164 420 203 487 252 531 b 275 552 306 573 343 587 b 370 597 412 608 464 608 z"},"w":{"x_min":0,"x_max":849,"ha":849,"o":"m 62 453 b 90 435 107 418 112 400 l 187 1 l 270 1 l 447 351 l 514 1 l 596 1 l 849 501 l 756 501 l 578 151 l 512 501 l 430 501 l 252 150 l 203 404 b 193 453 166 493 122 524 z"},"-":{"x_min":0,"x_max":431,"ha":431,"o":"m 376 260 l 390 352 l 58 352 l 44 260 z"},"E":{"x_min":0,"x_max":663,"ha":663,"o":"m 668 597 l 682 684 l 203 684 b 167 684 136 671 109 644 b 83 618 67 587 62 551 l 153 551 b 153 558 157 570 161 579 b 167 591 175 595 185 597 l 90 0 l 573 0 l 587 88 l 200 88 l 237 317 l 504 317 l 517 404 l 250 404 l 281 597 z"},"s":{"x_min":0,"x_max":469,"ha":469,"o":"m 4 57 b 58 13 118 -9 190 -9 b 241 -9 289 2 329 25 b 382 55 414 101 414 164 b 414 204 397 236 362 260 b 350 268 327 281 302 291 b 281 299 261 307 242 315 b 223 322 209 331 197 341 b 188 348 183 358 183 371 b 183 391 192 407 210 416 b 221 422 238 427 256 427 b 285 427 330 415 386 392 l 417 471 b 376 496 326 508 279 508 b 231 508 189 496 158 476 b 112 447 88 402 88 356 b 88 319 105 287 141 265 b 156 256 179 244 201 237 b 223 229 242 221 261 213 b 280 205 297 195 307 185 b 316 176 320 166 320 153 b 320 149 320 145 319 141 b 311 95 274 72 209 72 b 179 72 153 77 130 86 b 106 95 85 108 62 123 z"},">":{"x_min":0,"x_max":384,"ha":384,"o":"m 385 265 l 117 474 l 51 397 l 221 263 l 11 132 l 51 56 z"},"l":{"x_min":0,"x_max":275,"ha":275,"o":"m 209 726 l 119 726 l 19 94 b 18 88 18 82 18 77 b 18 55 25 36 39 21 b 57 2 80 -8 108 -8 b 147 -8 183 12 218 51 l 150 97 l 138 85 b 133 80 129 77 124 77 b 119 77 115 79 112 82 b 110 85 109 89 109 94 z"},"8":{"x_min":0,"x_max":565,"ha":565,"o":"m 345 666 b 292 666 242 651 199 622 b 144 585 114 531 114 467 b 114 426 131 395 164 369 b 130 346 101 320 77 291 b 51 259 38 229 31 189 b 29 176 28 164 28 153 b 28 104 45 65 80 35 b 119 2 172 -15 240 -15 b 308 -15 367 2 416 35 b 471 72 503 124 513 186 b 515 198 516 209 516 219 b 516 281 486 327 428 362 b 488 399 518 452 523 486 b 524 493 526 504 526 517 b 526 548 518 593 482 622 b 446 651 397 666 345 666 z m 345 580 b 360 580 381 579 405 559 b 416 550 420 542 425 531 b 428 524 429 516 429 507 b 429 503 429 499 428 494 b 426 482 422 471 417 462 b 404 442 378 420 341 398 b 319 404 297 411 275 419 b 229 433 212 453 212 481 b 212 512 227 540 256 559 b 277 573 304 580 345 580 z m 248 329 b 265 324 328 309 364 288 b 378 280 397 265 407 250 b 414 238 419 225 419 209 b 419 203 418 197 417 191 b 413 170 406 150 397 135 b 369 90 315 69 253 69 b 211 69 179 79 157 98 b 145 107 136 120 132 135 b 128 145 127 157 127 169 b 127 213 146 243 175 272 b 191 287 213 304 248 329 z"},"\\":{"x_min":0,"x_max":337,"ha":337,"o":"m 274 -69 l 175 750 l 77 750 l 174 -69 z"},"e":{"x_min":0,"x_max":546,"ha":546,"o":"m 432 122 b 411 112 375 96 348 87 b 319 77 288 72 259 72 b 219 72 187 81 167 98 b 147 114 133 143 132 187 l 230 187 b 300 187 354 200 393 219 b 453 248 485 294 494 349 b 495 357 496 365 496 373 b 496 412 481 444 449 469 b 415 495 369 508 322 508 b 253 508 188 480 136 429 b 87 380 55 315 43 237 b 40 218 38 200 38 182 b 38 136 49 94 76 59 b 109 16 161 -10 239 -10 b 313 -10 390 13 465 56 z m 140 268 b 150 312 174 351 199 377 b 215 393 232 406 248 415 b 269 426 289 429 305 429 b 314 429 330 428 345 425 b 358 422 369 417 377 411 b 382 408 393 400 398 387 b 401 379 403 371 403 362 b 403 358 403 354 402 349 b 399 331 392 316 380 305 b 375 301 356 286 333 278 b 308 269 284 268 243 268 z"},"b":{"x_min":0,"x_max":558,"ha":558,"o":"m 220 726 l 130 726 l 18 14 b 66 -1 145 -9 196 -9 b 284 -9 357 15 412 67 b 458 110 497 178 509 258 b 512 276 513 293 513 310 b 513 360 501 406 479 440 b 445 492 389 518 319 518 b 267 518 221 503 180 474 z m 158 329 b 161 350 173 370 194 390 b 226 420 264 435 305 435 b 352 435 383 415 403 376 b 414 353 420 327 420 298 b 420 284 419 269 416 253 b 408 200 388 158 356 126 b 340 109 321 96 299 87 b 278 78 255 73 220 73 b 198 73 161 75 118 80 z"},"%":{"x_min":0,"x_max":732,"ha":732,"o":"m 246 711 b 203 711 164 696 130 665 b 96 634 75 597 68 553 b 66 542 66 532 66 523 b 66 490 74 462 92 438 b 102 423 116 411 134 402 b 152 393 171 389 194 389 b 238 389 260 389 312 436 b 347 466 368 503 375 547 b 377 557 377 567 377 577 b 377 608 368 637 350 662 b 326 695 291 711 246 711 z m 246 0 l 579 656 l 484 656 l 150 0 z m 233 630 b 253 630 270 620 284 600 b 290 592 292 582 292 569 b 292 564 292 559 291 553 b 288 531 286 520 264 496 b 248 479 230 470 208 470 b 188 470 170 480 158 500 b 152 509 150 519 150 531 b 150 536 150 541 151 547 b 153 557 156 567 161 577 b 176 612 201 630 233 630 z m 558 312 b 515 312 475 297 442 266 b 408 235 387 198 380 155 b 378 144 378 134 378 125 b 378 92 386 64 404 40 b 414 25 428 13 446 4 b 464 -5 483 -9 506 -9 b 550 -9 572 -9 624 38 b 659 68 680 105 687 148 b 689 158 689 168 689 178 b 689 210 680 239 662 264 b 638 296 604 312 558 312 z m 552 231 b 568 231 582 223 592 208 b 603 192 606 177 604 162 b 600 135 598 121 576 97 b 560 80 542 71 520 71 b 500 71 482 81 469 101 b 464 109 462 119 462 131 b 462 136 462 142 463 148 b 466 170 475 189 490 205 b 496 213 504 219 514 224 b 524 229 536 231 552 231 z"},"m":{"x_min":0,"x_max":929,"ha":929,"o":"m 78 458 b 92 442 103 425 107 408 b 109 398 111 388 111 376 b 111 366 110 357 108 346 l 53 0 l 143 0 l 199 348 b 205 359 216 370 225 379 b 262 413 300 427 338 427 b 367 427 389 419 399 402 b 405 391 408 376 408 358 b 408 350 408 341 406 331 l 353 0 l 443 0 l 498 346 b 538 400 584 427 638 427 b 686 427 711 406 711 365 b 711 359 710 352 709 344 l 669 90 b 668 85 668 79 668 73 b 668 64 669 56 671 48 b 680 16 710 -10 759 -10 b 800 -10 835 9 867 47 l 801 93 b 791 80 784 73 775 73 b 770 73 764 75 762 78 b 760 80 759 83 759 86 l 759 90 l 799 345 b 801 357 802 368 802 379 b 802 415 791 445 769 467 b 742 494 701 508 653 508 b 589 508 536 484 487 437 b 465 484 423 508 358 508 b 296 508 240 486 195 443 b 187 468 170 490 144 510 z"},"#":{"x_min":0,"x_max":591,"ha":591,"o":"m 483 492 l 506 637 l 415 637 l 392 492 l 260 492 l 283 637 l 192 637 l 169 492 l 55 492 l 42 410 l 156 410 l 132 258 l 18 258 l 5 176 l 121 176 l 98 30 l 187 30 l 210 176 l 344 176 l 321 30 l 410 30 l 433 176 l 547 176 l 560 258 l 446 258 l 470 410 l 584 410 l 597 492 z m 247 410 l 379 410 l 355 258 l 223 258 z"},",":{"x_min":0,"x_max":187,"ha":187,"o":"m 7 15 b 5 6 5 1 1 -10 b -6 -27 -21 -45 -45 -66 l 2 -122 b 35 -101 60 -79 77 -56 b 92 -33 103 -3 108 32 l 112 52 b 114 67 111 79 102 88 b 94 97 83 102 69 102 b 55 102 42 98 32 89 b 20 80 13 68 11 54 z"},"n":{"x_min":0,"x_max":659,"ha":659,"o":"m 78 458 b 92 442 103 425 107 408 b 109 398 111 388 111 376 b 111 366 110 357 108 346 l 53 0 l 143 0 l 198 343 b 215 361 240 386 269 403 b 293 417 321 428 356 428 b 389 428 413 418 425 404 b 435 394 440 380 440 359 b 440 351 439 341 437 330 l 398 88 b 397 84 397 79 397 74 b 397 65 398 55 401 46 b 410 14 440 -12 489 -12 b 530 -12 565 7 597 45 l 531 91 b 521 78 514 71 505 71 b 500 71 494 73 491 76 b 489 79 488 83 488 88 l 531 355 b 533 366 533 377 533 387 b 533 402 532 415 528 427 b 509 484 449 508 374 508 b 299 508 246 484 196 438 b 189 464 171 488 143 510 z"},"h":{"x_min":0,"x_max":610,"ha":610,"o":"m 209 729 l 119 729 l 4 3 l 94 3 l 149 353 b 170 376 199 400 221 414 b 243 428 269 438 307 438 b 340 438 363 431 376 417 b 386 407 392 391 392 371 b 392 364 391 356 390 348 l 349 95 b 348 90 348 85 348 80 b 348 57 355 39 370 23 b 378 14 389 7 401 2 b 413 -4 428 -6 442 -6 b 465 -6 482 -1 499 10 b 516 20 533 34 548 51 l 480 100 b 469 86 460 79 453 79 b 444 79 439 79 439 89 l 439 95 l 480 351 b 482 365 484 379 484 391 b 484 405 482 417 479 428 b 463 491 408 521 326 521 b 261 521 215 502 167 465 z"},"z":{"x_min":0,"x_max":561,"ha":561,"o":"m 500 464 l 505 498 l 119 498 l 106 417 l 347 417 l -1 24 l 62 -26 l 117 34 b 154 23 188 12 222 3 b 254 -7 292 -12 333 -12 b 375 -12 423 5 478 39 l 447 108 b 401 81 365 68 339 68 b 313 68 287 72 260 79 b 247 82 234 86 222 91 l 179 105 z"},"B":{"x_min":0,"x_max":650,"ha":650,"o":"m 205 695 b 169 695 138 682 112 655 b 86 629 70 598 64 562 l 155 562 b 160 593 174 608 196 608 l 100 2 l 167 -4 b 195 -6 242 -9 288 -9 b 375 -9 446 2 499 39 b 521 55 546 77 564 102 b 582 127 594 159 599 192 b 601 204 602 215 602 226 b 602 252 597 275 586 296 b 574 323 551 350 520 368 b 578 399 609 452 616 496 b 618 507 622 526 622 547 b 622 578 613 616 574 648 b 538 678 485 695 427 695 z m 292 608 l 428 608 b 463 608 485 600 503 583 b 517 569 525 550 525 527 b 525 521 525 515 524 509 b 521 491 515 476 504 461 b 478 423 439 404 380 404 l 325 404 l 312 319 l 374 319 b 414 319 446 309 472 289 b 496 270 508 247 508 217 b 508 211 507 204 506 197 b 499 156 478 123 442 102 b 428 94 406 86 387 82 b 368 78 344 76 308 76 b 282 76 247 77 208 79 z"},"K":{"x_min":0,"x_max":658,"ha":658,"o":"m 489 684 b 454 630 432 595 402 553 b 366 502 330 456 300 429 b 285 415 262 398 235 392 b 223 389 202 387 172 387 l 219 684 l 123 684 l 15 1 l 113 1 l 159 297 l 173 297 b 196 297 221 299 245 305 l 402 36 b 419 7 446 -7 483 -7 b 517 -7 546 5 570 29 b 592 51 607 79 612 113 l 520 113 b 517 91 509 80 498 80 b 493 80 490 80 485 87 l 335 344 b 357 361 378 382 399 407 b 409 419 440 457 461 486 b 488 521 505 546 529 581 b 555 618 578 650 605 684 z"},"R":{"x_min":0,"x_max":735,"ha":735,"o":"m 203 684 b 167 684 136 671 109 644 b 83 618 67 587 62 551 l 153 551 b 158 582 171 597 193 597 l 98 0 l 194 0 l 289 597 l 421 597 b 439 597 454 594 468 587 b 503 570 518 537 518 497 b 518 444 499 407 467 381 b 440 360 408 349 371 349 l 317 349 l 303 263 b 329 261 367 209 378 190 l 480 34 b 498 5 525 -9 563 -9 b 598 -9 625 3 647 25 b 670 47 683 75 689 108 l 597 111 b 596 104 595 96 593 89 b 590 82 585 78 576 78 b 570 78 565 80 563 84 l 458 246 l 446 264 l 434 280 b 480 289 520 312 553 348 b 584 382 603 423 611 470 b 613 483 614 496 614 509 b 614 552 602 591 578 622 b 546 663 500 684 439 684 z"},"T":{"x_min":0,"x_max":642,"ha":642,"o":"m 667 597 l 681 684 l 199 684 b 169 684 141 674 116 648 b 93 625 80 598 75 565 l 167 565 b 168 586 175 597 188 597 l 332 597 l 237 0 l 333 0 l 428 597 z"},"P":{"x_min":0,"x_max":624,"ha":624,"o":"m 203 684 b 167 684 136 671 109 644 b 83 618 67 587 62 551 l 153 551 b 153 561 157 571 164 582 b 169 592 178 597 191 597 l 195 597 l 100 0 l 196 0 l 291 597 l 405 597 b 445 597 475 586 495 564 b 511 546 517 523 517 497 b 517 448 500 405 468 373 b 441 345 408 331 370 331 b 352 331 331 334 310 339 b 305 304 297 274 293 252 b 310 247 327 245 347 245 b 413 245 471 266 519 308 b 569 351 599 405 609 470 b 611 485 613 499 613 513 b 613 557 600 594 576 624 b 544 664 496 684 433 684 z"},"|":{"x_min":0,"x_max":184,"ha":184,"o":"m 85 -87 l 220 768 l 124 768 l -11 -87 z"},"t":{"x_min":0,"x_max":396,"ha":396,"o":"m 185 505 l 204 624 l 114 624 l 39 152 b 37 136 36 122 36 109 b 36 30 76 -9 156 -9 b 190 -9 223 -2 254 16 b 291 38 318 71 330 88 l 269 136 b 257 120 243 106 226 94 b 218 87 209 82 201 78 b 191 74 182 72 172 72 b 161 72 152 74 146 79 b 133 87 127 103 127 126 b 127 134 127 142 129 152 l 172 419 l 330 419 l 343 505 z"},"M":{"x_min":0,"x_max":1034,"ha":1034,"o":"m 954 0 l 916 684 l 833 684 l 537 144 l 415 684 l 330 684 l 106 88 b 104 82 97 80 92 80 b 86 80 80 83 75 103 l -13 71 b -7 46 7 26 19 15 b 35 0 57 -6 79 -6 b 95 -6 107 -3 116 0 b 153 12 182 41 194 74 l 358 517 l 472 0 l 555 0 l 835 519 l 862 0 z"},"g":{"x_min":0,"x_max":548,"ha":548,"o":"m 537 499 l 467 499 l 423 505 b 398 508 361 509 346 509 b 268 509 197 480 146 435 b 91 386 56 320 45 250 b 42 233 41 215 41 198 b 41 162 47 127 58 97 b 75 52 107 12 158 -8 b 131 -38 115 -74 108 -117 b 107 -125 105 -136 105 -149 b 105 -174 111 -205 133 -231 b 157 -261 198 -280 247 -280 b 294 -280 341 -263 376 -231 b 413 -197 434 -152 442 -101 z m 398 176 b 397 169 391 158 384 147 b 376 136 367 125 351 111 b 310 76 275 62 239 62 b 192 62 164 87 147 127 b 135 153 130 181 130 211 b 130 224 131 238 133 251 b 141 302 164 342 200 374 b 217 390 239 404 260 412 b 284 422 307 425 335 425 b 357 425 394 423 437 420 z m 354 -104 b 353 -112 349 -125 344 -136 b 327 -176 297 -196 260 -196 b 237 -196 218 -188 207 -169 b 203 -162 197 -147 197 -143 b 196 -139 196 -134 196 -129 b 196 -121 196 -113 198 -104 b 201 -85 205 -77 220 -62 b 230 -51 241 -43 255 -35 l 283 -18 b 289 -13 298 -10 306 -7 b 326 -1 349 12 375 31 z"},"j":{"x_min":0,"x_max":256,"ha":256,"o":"m 233 733 b 199 733 166 702 166 667 b 166 639 187 619 215 619 b 250 619 282 649 282 685 b 282 712 262 733 233 733 z m 246 502 l 156 502 l 51 -161 b 50 -166 47 -170 44 -173 b 41 -176 36 -178 31 -178 b 26 -178 22 -176 18 -171 l 10 -158 l -72 -205 b -50 -245 -23 -265 10 -265 b 44 -265 61 -265 98 -235 b 122 -215 136 -190 141 -161 z"},"i":{"x_min":0,"x_max":261,"ha":261,"o":"m 166 733 b 132 733 99 702 99 667 b 99 639 120 619 148 619 b 183 619 215 649 215 685 b 215 712 195 733 166 733 z m 109 83 l 175 500 l 85 500 l 19 83 b 18 76 17 70 17 64 b 17 42 24 25 38 10 b 56 -10 79 -19 108 -19 b 146 -19 183 1 218 40 l 149 86 l 137 74 b 132 69 128 66 123 66 b 118 66 114 68 112 71 b 110 73 109 76 109 79 z"},"y":{"x_min":0,"x_max":570,"ha":570,"o":"m 76 443 l 91 431 b 117 409 129 391 127 377 l 89 137 b 87 126 87 116 87 106 b 87 80 93 57 105 39 b 120 16 147 -3 186 -12 b 155 -45 136 -98 136 -146 b 136 -178 145 -209 163 -234 b 188 -267 225 -284 274 -284 b 322 -284 369 -268 405 -236 b 438 -207 462 -161 471 -106 l 509 136 l 568 500 l 478 500 l 424 169 b 420 155 415 144 408 136 b 404 131 399 126 394 122 b 388 117 380 110 368 101 b 357 91 340 81 324 75 b 306 68 281 64 257 64 b 223 64 205 72 193 87 b 184 98 180 113 180 132 b 180 141 181 151 183 162 l 217 377 b 218 381 218 385 218 390 b 218 412 210 439 192 462 b 181 476 163 494 136 515 z m 382 -110 b 378 -137 367 -159 351 -176 b 333 -192 312 -200 287 -200 b 264 -200 246 -193 235 -174 b 228 -162 225 -148 225 -133 b 225 -95 243 -62 276 -41 b 288 -32 306 -23 330 -13 b 352 -4 369 4 403 25 z"},"@":{"x_min":0,"x_max":698,"ha":698,"o":"m 520 60 b 451 31 384 19 313 19 b 246 19 188 30 151 75 b 126 105 113 148 113 197 b 113 211 114 225 116 240 b 127 305 159 365 203 405 b 248 447 310 471 382 471 b 448 471 496 451 532 413 b 551 393 561 374 568 346 b 573 330 575 313 575 297 b 575 286 574 275 572 264 b 568 237 559 210 546 191 b 529 166 508 155 488 155 b 476 155 466 159 458 166 b 451 172 447 180 447 190 b 447 193 448 195 448 198 l 481 409 l 419 409 l 354 414 b 311 414 268 395 238 369 b 207 343 181 303 174 256 b 172 246 172 236 172 225 b 172 196 178 167 192 144 b 201 130 215 116 230 107 b 248 97 268 92 294 92 b 323 92 348 98 382 124 b 398 91 435 79 473 79 b 524 79 567 100 598 131 b 630 163 652 209 660 262 b 663 278 664 293 664 308 b 664 372 642 429 602 471 b 555 520 482 548 392 548 b 298 548 213 518 149 462 b 87 409 42 330 26 234 b 23 214 22 196 22 178 b 22 105 48 54 84 17 b 113 -12 140 -27 175 -40 b 208 -52 244 -59 294 -59 b 331 -59 374 -55 414 -46 b 436 -41 494 -26 533 -15 z m 366 219 l 361 209 b 345 186 335 173 304 173 b 295 173 284 174 276 181 b 263 192 257 212 257 233 b 257 267 270 298 288 313 b 301 325 323 333 347 333 b 356 333 372 332 384 331 z"},".":{"x_min":0,"x_max":201,"ha":201,"o":"m 67 95 b 30 95 -4 63 -4 27 b -4 -2 18 -24 49 -24 b 86 -24 120 8 120 45 b 120 73 98 95 67 95 z"},"p":{"x_min":0,"x_max":596,"ha":596,"o":"m 78 457 b 92 440 102 423 107 406 b 109 396 111 385 111 373 b 111 363 110 354 108 343 l 12 -260 l 102 -260 l 141 -14 b 176 -17 205 -20 236 -20 b 328 -20 397 7 448 56 b 493 98 533 165 546 247 b 549 265 550 282 550 298 b 550 350 537 396 516 430 b 482 482 426 508 355 508 b 291 508 236 487 193 445 b 184 466 180 477 144 511 z m 194 318 b 194 321 196 326 198 332 b 210 364 232 388 265 405 b 290 418 318 425 344 425 b 387 425 420 406 439 366 b 451 343 456 315 456 284 b 456 271 455 257 453 242 b 445 191 425 148 393 116 b 376 99 357 86 336 77 b 314 67 291 62 256 62 b 234 62 198 64 154 69 z"},"X":{"x_min":0,"x_max":702,"ha":702,"o":"m 407 350 l 681 684 l 568 684 l 356 424 l 225 684 l 114 684 l 284 350 l 8 0 l 120 0 l 335 275 l 427 70 b 438 47 450 27 463 15 b 478 1 495 -7 520 -7 b 539 -7 557 -2 572 4 b 612 20 639 48 655 108 l 563 113 b 557 92 549 82 537 82 b 533 82 532 83 529 87 z"},"*":{"x_min":0,"x_max":373,"ha":373,"o":"m 278 603 l 302 712 l 205 712 l 193 604 l 102 642 l 58 550 l 150 524 l 77 449 l 145 391 l 216 480 l 259 393 l 348 449 l 297 523 l 397 550 l 383 642 z"},"Y":{"x_min":0,"x_max":662,"ha":662,"o":"m 159 574 l 166 594 b 169 601 173 605 180 605 b 187 605 192 602 194 597 l 320 295 l 269 0 l 371 0 l 416 297 l 706 685 l 596 685 l 384 400 l 283 640 b 267 676 238 694 196 694 b 163 694 136 683 113 662 b 92 642 76 614 68 583 z"},"c":{"x_min":0,"x_max":546,"ha":546,"o":"m 432 126 b 405 113 377 101 349 91 b 320 81 291 76 261 76 b 211 76 176 90 154 119 b 139 140 131 166 131 199 b 131 212 132 225 134 239 b 142 290 161 332 189 368 b 203 386 214 398 240 415 b 260 427 285 433 311 433 b 342 433 368 425 382 411 b 395 399 402 382 402 359 b 402 352 401 345 400 337 l 492 337 b 494 348 494 358 494 368 b 494 407 482 442 454 468 b 423 496 375 512 323 512 b 255 512 189 484 137 433 b 86 383 55 316 44 242 b 41 223 39 204 39 186 b 39 140 50 97 76 63 b 112 16 168 -6 240 -6 b 316 -6 394 19 466 60 z"},"!":{"x_min":0,"x_max":184,"ha":184,"o":"m 113 152 l 212 704 l 100 704 l 23 152 z m 59 93 b 22 93 -14 60 -14 22 b -14 -8 8 -31 39 -31 b 76 -31 112 3 112 41 b 112 70 89 93 59 93 z"},"/":{"x_min":0,"x_max":337,"ha":337,"o":"m 45 -87 l 407 768 l 308 768 l -55 -87 z"},"[":{"x_min":0,"x_max":330,"ha":330,"o":"m 380 661 l 394 750 l 121 750 l -25 -173 l 248 -173 l 262 -84 l 85 -84 l 203 661 z"},"6":{"x_min":0,"x_max":551,"ha":551,"o":"m 520 670 b 464 670 407 661 349 640 b 288 618 240 588 198 554 b 157 520 118 479 86 424 b 53 369 34 314 26 262 b 23 242 21 223 21 205 b 21 149 36 102 65 65 b 104 13 168 -15 239 -15 b 302 -15 370 7 424 50 b 476 91 514 150 525 217 b 527 229 528 241 528 252 b 528 303 510 348 476 385 b 457 406 434 421 405 433 b 373 446 344 451 311 451 b 259 451 223 438 176 413 b 221 478 271 520 321 545 b 373 571 399 586 504 586 z m 306 367 b 330 367 377 364 408 326 b 425 306 438 275 438 240 b 438 193 418 147 372 110 b 334 80 293 68 256 68 b 214 68 176 84 151 108 b 127 130 115 159 115 192 b 115 238 132 282 183 323 b 199 336 214 346 238 355 b 261 364 281 367 306 367 z"},"r":{"x_min":0,"x_max":422,"ha":422,"o":"m 78 458 b 99 434 110 406 110 373 b 110 365 109 356 108 347 l 53 0 l 143 0 l 198 346 b 243 403 283 426 328 426 b 347 426 377 422 408 415 l 421 498 b 409 500 396 502 384 505 b 372 507 359 508 346 508 b 287 508 237 487 195 444 b 185 470 167 492 144 510 z"},"2":{"x_min":0,"x_max":556,"ha":556,"o":"m 70 501 l 142 463 b 148 471 153 479 159 488 l 176 513 b 195 540 218 559 238 569 b 260 580 288 586 321 586 b 354 586 380 577 398 560 b 412 547 419 528 419 502 b 419 494 418 486 417 477 b 413 452 401 428 381 407 b 361 386 335 365 307 345 b 278 325 247 305 213 284 b 180 263 148 240 119 215 b 50 158 11 96 0 29 l -5 0 l 466 0 l 480 87 l 114 87 b 128 110 146 132 170 151 b 193 170 218 188 246 206 l 331 261 b 360 279 387 299 411 320 b 468 367 500 419 509 475 b 511 489 512 503 512 516 b 512 559 499 594 473 619 b 456 635 432 648 412 654 b 389 661 354 665 321 665 b 285 665 247 657 208 641 b 168 624 136 598 110 561 z"},"{":{"x_min":0,"x_max":318,"ha":318,"o":"m 365 677 l 353 754 b 329 747 304 741 280 735 b 255 729 232 721 211 710 b 190 699 172 685 157 667 b 141 648 131 623 126 591 b 121 558 118 515 116 460 b 115 441 115 426 115 413 b 115 400 114 388 112 377 b 110 366 106 357 99 352 b 83 341 58 334 22 330 l 9 247 b 30 245 47 242 58 238 b 67 235 73 230 79 225 b 83 221 85 215 85 208 b 85 206 85 203 84 200 b 82 189 75 162 61 120 b 48 77 38 33 30 -15 b 28 -25 28 -34 28 -43 b 28 -83 44 -112 77 -132 b 95 -143 115 -151 139 -157 b 161 -163 184 -169 206 -176 l 242 -99 b 231 -96 214 -91 190 -85 b 166 -78 148 -70 138 -60 b 133 -55 128 -50 127 -43 b 126 -40 126 -36 126 -30 b 126 -22 127 -11 129 2 b 132 24 140 54 153 92 b 166 129 175 166 180 202 b 181 209 182 215 182 222 b 182 249 171 271 148 288 b 182 309 199 319 208 374 b 212 399 215 437 216 487 b 216 537 219 575 223 600 b 226 615 234 628 248 638 b 254 643 262 647 270 650 b 278 653 287 656 298 659 b 308 662 319 665 330 668 z"},"9":{"x_min":0,"x_max":550,"ha":550,"o":"m 55 -23 l 77 -23 b 136 -23 190 -12 242 9 b 294 30 343 61 386 98 b 428 134 464 177 494 228 b 520 274 540 328 549 384 b 552 403 553 421 553 439 b 553 494 539 543 510 582 b 470 634 406 662 334 662 b 269 662 204 639 151 597 b 98 555 61 495 51 430 b 49 417 48 405 48 392 b 48 341 66 294 98 261 b 112 246 137 226 169 213 b 197 201 233 195 263 195 b 309 195 349 209 406 243 b 364 180 305 132 259 105 b 198 70 143 60 70 60 z m 318 578 b 336 578 355 575 372 570 b 385 565 402 556 414 546 b 421 540 438 523 449 502 b 457 486 462 467 462 446 b 462 402 442 358 407 326 b 365 289 314 279 277 279 b 228 279 190 296 167 321 b 146 345 136 374 136 405 b 136 461 164 506 203 536 b 214 544 232 557 259 567 b 279 574 298 578 318 578 z"}," ":{"x_min":0,"x_max":271,"ha":271,"o":""},"I":{"x_min":0,"x_max":210,"ha":210,"o":"m 110 0 l 219 684 l 123 684 l 14 0 z"},"H":{"x_min":0,"x_max":722,"ha":722,"o":"m 147 577 b 157 590 165 597 171 597 b 174 597 178 596 180 593 b 183 590 184 589 183 584 l 90 0 l 187 0 l 237 311 l 571 311 l 521 0 l 617 0 l 726 684 l 630 684 l 585 399 l 251 399 l 280 584 b 281 590 282 596 282 602 b 282 624 274 643 259 659 b 249 668 238 676 226 681 b 214 686 199 689 180 689 b 161 689 142 684 125 673 b 107 662 90 647 74 629 z"},"4":{"x_min":0,"x_max":534,"ha":534,"o":"m 132 207 l 404 660 l 299 660 l 15 187 l 4 120 l 322 120 l 303 -2 l 400 -2 l 419 120 l 503 120 l 517 207 l 433 207 l 467 418 l 370 418 l 336 207 z"},"~":{"x_min":0,"x_max":524,"ha":524,"o":"m 429 360 b 396 334 367 321 344 321 b 321 321 297 327 271 338 b 245 349 218 355 189 355 b 160 355 134 350 112 339 b 90 328 80 323 41 295 l 88 228 b 124 254 153 267 177 267 b 190 267 210 262 236 253 b 268 240 301 233 334 233 b 357 233 381 239 407 250 b 421 256 444 270 476 292 z"},"D":{"x_min":0,"x_max":819,"ha":819,"o":"m 205 690 b 177 690 148 690 109 650 b 85 625 69 596 63 557 l 154 557 b 154 567 160 581 163 586 b 170 599 179 603 189 603 l 195 603 l 100 4 b 129 -6 274 -9 321 -9 b 459 -9 561 17 641 85 b 717 150 768 245 784 344 b 787 365 789 385 789 405 b 789 475 769 538 730 589 b 678 655 599 689 504 690 z m 291 603 l 480 603 b 562 603 618 573 651 530 b 677 497 693 450 693 393 b 693 376 692 360 689 342 b 675 257 633 189 585 147 b 531 101 461 76 354 76 b 332 76 243 77 208 80 z"},"^":{"x_min":0,"x_max":449,"ha":449,"o":"m 443 359 l 297 633 l 259 633 l 25 359 l 93 306 l 253 493 l 357 304 z"},"0":{"x_min":0,"x_max":667,"ha":667,"o":"m 393 664 b 343 664 303 652 264 634 b 219 613 191 590 162 559 b 103 495 66 417 53 329 b 49 304 47 279 47 256 b 47 193 61 138 88 94 b 108 62 134 38 169 20 b 197 5 243 -12 299 -12 b 355 -12 442 5 521 93 b 578 156 616 241 630 329 b 634 352 635 375 635 396 b 635 458 621 512 592 559 b 572 591 546 616 513 634 b 483 651 445 664 393 664 z m 387 577 b 489 577 536 482 536 378 b 536 360 535 341 532 323 b 521 257 492 196 460 156 b 418 103 362 76 301 76 b 241 76 195 103 168 156 b 152 187 145 224 145 265 b 145 285 147 305 150 326 b 160 390 185 451 221 496 b 263 549 305 577 387 577 z"},"F":{"x_min":0,"x_max":601,"ha":601,"o":"m 668 596 l 682 683 l 203 683 b 167 683 136 670 109 643 b 83 617 67 586 62 550 l 153 550 b 153 559 156 568 161 578 b 166 588 173 594 185 596 l 90 0 l 186 0 l 236 316 l 503 316 l 517 403 l 250 403 l 281 596 z"},"`":{"x_min":0,"x_max":240,"ha":240,"o":"m 298 625 l 138 771 l 68 692 l 249 563 z"},"k":{"x_min":0,"x_max":590,"ha":590,"o":"m 209 727 l 119 727 l 4 1 l 94 1 l 124 192 l 266 192 l 334 49 b 342 34 353 22 369 14 b 383 5 400 1 418 1 b 434 1 449 4 463 11 b 504 29 532 64 544 116 l 452 120 b 452 115 450 108 445 101 b 441 93 438 89 430 89 b 426 89 421 90 420 93 l 358 217 b 383 230 404 246 420 263 b 436 280 449 302 459 329 b 463 340 466 350 468 362 b 469 371 470 381 470 390 b 470 424 459 454 434 479 b 407 506 366 519 317 519 b 258 519 210 500 167 462 z m 139 275 b 149 320 171 358 194 385 b 226 422 262 439 304 439 b 346 439 374 422 380 389 b 381 385 382 381 382 378 b 382 375 381 372 381 368 b 377 347 370 330 348 307 b 326 286 288 275 237 275 z"},"u":{"x_min":0,"x_max":674,"ha":674,"o":"m 76 445 l 91 433 b 117 411 130 393 128 380 l 90 145 b 88 134 88 124 88 114 b 88 99 90 86 94 74 b 113 20 167 -7 246 -7 b 314 -7 363 13 413 53 b 419 33 429 18 447 7 b 463 -5 482 -10 502 -10 b 541 -10 578 9 612 46 l 544 94 l 532 81 b 526 76 522 73 517 73 b 512 73 507 75 505 78 b 503 80 502 83 502 86 l 502 90 l 568 501 l 478 501 l 422 156 b 389 122 374 111 351 97 b 323 81 296 72 265 72 b 230 72 207 83 195 97 b 186 107 181 120 181 140 b 181 148 182 158 184 169 l 218 380 b 219 385 219 389 219 394 b 219 435 192 476 136 515 z"},"]":{"x_min":0,"x_max":331,"ha":331,"o":"m 207 -173 l 353 750 l 80 750 l 66 661 l 243 661 l 125 -84 l -52 -84 l -66 -173 z"},"U":{"x_min":0,"x_max":770,"ha":770,"o":"m 146 580 l 159 594 b 164 600 169 603 177 603 b 187 603 193 598 193 588 l 193 583 l 143 272 b 140 254 139 236 139 219 b 139 160 155 108 190 68 b 231 21 298 -8 384 -8 b 466 -8 541 18 601 68 b 661 118 700 187 713 272 l 779 685 l 683 685 l 617 272 b 609 216 586 167 545 130 b 504 93 454 77 397 77 b 334 77 292 97 266 130 b 247 154 236 189 236 232 b 236 245 237 258 239 272 l 289 583 b 290 589 290 594 290 600 b 290 622 284 644 266 662 b 245 685 218 693 192 693 b 153 693 115 676 75 631 z"},"o":{"x_min":0,"x_max":627,"ha":627,"o":"m 353 508 b 273 508 202 480 151 437 b 96 392 57 326 45 248 b 42 232 41 216 41 201 b 41 142 60 93 90 59 b 144 -4 221 -8 271 -8 b 338 -8 413 6 474 61 b 528 109 565 175 577 251 b 580 267 581 283 581 298 b 581 352 564 399 531 437 b 488 484 428 508 353 508 z m 339 427 b 396 427 436 408 459 380 b 487 345 490 295 489 267 b 489 260 487 253 487 247 b 476 180 435 135 420 121 b 391 95 339 72 280 72 b 228 72 190 89 164 121 b 144 145 134 176 134 212 b 134 224 135 236 137 249 b 145 302 168 347 204 379 b 240 411 287 427 339 427 z"},"N":{"x_min":0,"x_max":798,"ha":798,"o":"m 208 684 l 115 97 b 113 88 108 83 99 83 b 89 83 83 86 83 92 b 82 95 82 97 82 100 b 82 102 82 105 83 109 l 84 115 l -7 115 b -8 107 -9 100 -9 92 b -9 70 -3 50 9 33 b 24 9 48 -3 81 -3 b 110 -3 137 7 163 26 b 190 46 205 70 210 98 l 273 522 l 649 0 l 693 0 l 802 683 l 707 683 l 632 191 b 587 252 543 314 500 375 b 456 436 420 488 389 529 b 359 570 336 601 320 622 b 303 643 286 663 271 684 z"},"+":{"x_min":0,"x_max":427,"ha":427,"o":"m 266 337 l 291 497 l 200 497 l 175 337 l 17 337 l 3 251 l 161 251 l 136 90 l 227 90 l 252 251 l 410 251 l 424 337 z"},"G":{"x_min":0,"x_max":767,"ha":767,"o":"m 548 -163 b 546 -174 538 -179 528 -179 b 520 -179 517 -176 513 -171 l 505 -158 l 421 -209 b 431 -226 442 -241 457 -253 b 472 -265 496 -270 515 -270 b 545 -270 573 -257 595 -239 b 619 -219 635 -194 640 -163 l 716 317 l 624 317 l 609 225 b 607 217 605 210 599 197 b 577 151 548 109 489 78 b 453 59 412 47 367 47 b 292 47 228 80 189 129 b 155 171 138 223 138 278 b 138 294 139 309 142 325 b 155 406 200 480 257 529 b 287 555 326 579 357 592 b 390 606 431 615 468 615 b 493 615 529 611 560 600 b 597 587 617 565 614 545 b 613 541 611 533 607 529 b 602 524 596 523 594 523 b 591 523 586 525 581 529 l 572 536 l 506 469 b 529 448 554 438 581 438 b 612 438 641 451 661 468 b 688 492 704 523 704 563 b 704 586 697 603 689 617 b 676 639 657 654 636 666 b 594 690 545 702 489 702 b 435 702 382 691 336 672 b 290 653 242 622 205 590 b 174 563 131 515 105 469 b 77 422 60 369 52 322 b 49 304 48 287 48 270 b 48 240 52 212 59 184 b 70 141 91 102 117 70 b 145 37 175 12 219 -9 b 262 -29 305 -38 354 -38 b 441 -38 517 -9 580 42 z"},"q":{"x_min":0,"x_max":549,"ha":549,"o":"m 328 -260 l 418 -260 l 536 485 b 487 500 407 508 356 508 b 269 508 198 485 142 431 b 96 387 57 320 44 239 b 41 221 40 203 40 185 b 40 137 51 92 73 57 b 107 6 162 -20 234 -20 b 286 -20 332 -6 373 23 z m 396 169 b 396 166 394 161 392 155 b 378 123 356 99 324 82 b 312 75 299 70 286 67 b 273 64 254 62 242 62 b 220 62 200 68 185 78 b 150 102 133 147 133 199 b 133 214 135 229 137 244 b 145 297 165 339 197 372 b 214 389 232 401 253 411 b 275 420 298 425 333 425 b 355 425 392 423 436 418 z"},"d":{"x_min":0,"x_max":644,"ha":644,"o":"m 575 727 l 485 727 l 450 512 b 413 516 371 518 348 518 b 261 518 194 490 142 441 b 94 395 58 329 45 251 b 42 233 41 215 41 198 b 41 149 52 103 75 68 b 106 21 159 -9 236 -9 b 295 -9 347 9 389 46 b 396 25 406 15 422 5 b 436 -3 452 -9 474 -9 b 514 -9 550 10 582 50 l 516 98 l 504 84 b 499 79 495 76 487 76 b 483 76 481 77 477 81 b 474 84 473 86 473 89 b 473 90 474 91 474 93 z m 400 196 b 395 161 377 130 346 106 b 329 93 314 87 299 82 b 278 75 264 73 248 73 b 220 73 201 79 186 89 b 154 110 134 153 134 210 b 134 223 135 237 137 252 b 146 307 168 353 198 382 b 211 395 234 412 255 421 b 274 429 296 435 340 435 b 366 435 402 433 437 428 z"},"1":{"x_min":0,"x_max":377,"ha":377,"o":"m 272 0 l 378 669 l 347 669 b 326 657 306 645 286 633 b 214 588 150 566 95 566 l 103 484 b 160 484 212 498 260 527 l 176 0 z"},"5":{"x_min":0,"x_max":500,"ha":500,"o":"m 484 654 b 422 651 298 648 114 646 l 64 335 b 104 349 171 364 222 364 b 279 364 320 355 344 342 b 373 326 388 301 388 263 b 388 254 387 245 386 235 b 377 183 353 144 321 118 b 289 92 242 76 196 76 b 176 76 163 79 150 84 b 119 96 75 124 39 157 l 2 72 b 10 63 24 51 37 42 b 86 7 138 -10 194 -10 b 263 -10 326 16 374 54 b 399 74 423 100 442 132 b 463 166 474 199 479 230 b 481 243 482 255 482 267 b 482 324 460 368 426 397 b 404 416 377 429 348 438 b 317 447 285 451 256 451 b 235 451 204 449 178 446 l 196 562 l 264 562 b 286 561 355 563 470 566 z"}}}
